<?xml version="1.0" encoding="utf-8"?>
<!-- Generator: Adobe Illustrator 13.0.0, SVG Export Plug-In . SVG Version: 6.00 Build 14948)  -->
<!DOCTYPE svg PUBLIC "-//W3C//DTD SVG 1.1//EN" "http://www.w3.org/Graphics/SVG/1.1/DTD/svg11.dtd">
<svg version="1.1" id="Capa_1" xmlns="http://www.w3.org/2000/svg" xmlns:xlink="http://www.w3.org/1999/xlink" x="0px" y="0px"
	 width="500px" height="452px" viewBox="0 0 500 452" enable-background="new 0 0 500 452" xml:space="preserve">
<g>
	<path fill="#EDD0A0" d="M264.602,373.448c-44.414,44.415-44.414,73.955-44.414,73.955s-29.612-59.141,14.803-103.555
		c44.414-44.412,44.414-73.951,44.414-73.951S309.015,329.034,264.602,373.448z"/>
	<path fill="#EDD0A0" d="M235.082,107.205C190.67,151.62,190.67,181.16,190.67,181.16s-29.612-59.142,14.803-103.556
		c44.414-44.414,44.414-73.952,44.414-73.952S279.497,62.791,235.082,107.205z"/>
	<path fill="#EDD0A0" d="M495.496,210.933c0-20.934-20.929-41.86-20.929-41.86L368.431,62.937l-195.31,195.312
		c-2.537,2.447-22.04,20.641-41.565,20.641c-19.476,0-38.923-18.096-41.539-20.619l-5.834-5.83
		c-1.989-2.048-20.729-21.836-20.729-41.656c0.003-20.071,19.192-40.081,20.776-41.7l34.946-34.944
		c1.415-1.444,20.792-21.548,20.792-41.722c0-10.147-4.923-20.278-9.994-28.04L25.278,169.073c0,0-20.928,20.926-20.928,41.86
		c0,20.932,20.928,41.857,20.928,41.857l106.135,106.136l195.299-195.297c2.501-2.416,22.027-20.656,41.576-20.656
		c19.444,0,38.859,18.036,41.523,20.602l5.79,5.793c1.484,1.512,20.787,21.578,20.789,41.711c0,19.612-18.372,39.218-20.691,41.614
		l-14.383,14.379l-20.822,20.829c-2.507,2.601-20.627,22.056-20.627,41.544c0,10.153,4.928,20.283,9.999,28.046l104.7-104.701
		C474.567,252.79,495.496,231.865,495.496,210.933z"/>
</g>
</svg>
