<?xml version="1.0" encoding="utf-8"?>
<!-- Generator: Adobe Illustrator 13.0.0, SVG Export Plug-In . SVG Version: 6.00 Build 14948)  -->
<!DOCTYPE svg PUBLIC "-//W3C//DTD SVG 1.1//EN" "http://www.w3.org/Graphics/SVG/1.1/DTD/svg11.dtd">
<svg version="1.1" id="Capa_1" xmlns="http://www.w3.org/2000/svg" xmlns:xlink="http://www.w3.org/1999/xlink" x="0px" y="0px"
	 width="512px" height="512px" viewBox="0 0 512 512" enable-background="new 0 0 512 512" xml:space="preserve">
<path fill="none" stroke="#023836" d="M512,266.238c-49.014,0-88.746-39.733-88.746-88.746c0-49.013-39.733-88.747-88.745-88.747
	c-49.013,0-88.747-39.733-88.747-88.746"/>
<path fill="none" stroke="#023836" d="M0,266.238c49.014,0,88.746-39.733,88.746-88.746c0-49.013,39.733-88.747,88.745-88.747
	c49.013,0,88.747-39.733,88.747-88.746"/>
<path fill="none" stroke="#023836" d="M512,245.762c-49.014,0-88.746,39.734-88.746,88.746c0,49.014-39.733,88.747-88.745,88.747
	c-49.013,0-88.747,39.733-88.747,88.745"/>
<path fill="none" stroke="#023836" d="M0,245.762c49.014,0,88.746,39.734,88.746,88.746c0,49.014,39.733,88.747,88.745,88.747
	c49.013,0,88.747,39.733,88.747,88.745"/>
<g>
	<path fill="none" stroke="#023836" d="M527,281.238h-15c-57.206,0-103.745-46.54-103.745-103.746
		c0-40.664-33.082-73.747-73.745-73.747c-57.207,0-103.746-46.54-103.746-103.746V-15h15H512h15v14.999v266.24V281.238L527,281.238z
		"/>
</g>
<g>
	<path fill="none" stroke="#023836" d="M0,281.236h-15v-14.999V0v-15H0h266.237h14.999V0c0,57.207-46.538,103.745-103.745,103.745
		c-40.665,0-73.746,33.082-73.746,73.746C103.746,234.698,57.207,281.236,0,281.236L0,281.236z"/>
</g>
<g>
	<path fill="none" stroke="#023836" d="M527,527h-15H245.763h-15v-15c0-57.206,46.539-103.745,103.746-103.745
		c40.663,0,73.745-33.084,73.745-73.747c0-57.207,46.539-103.746,103.745-103.746h15v14.999V512V527L527,527z"/>
</g>
<g>
	<path fill="none" stroke="#023836" d="M281.238,527h-14.999H-0.001H-15v-15V245.761v-14.999h14.999
		c57.207,0,103.746,46.539,103.746,103.746c0,40.663,33.082,73.747,73.745,73.747c57.207,0,103.748,46.539,103.748,103.745V527
		L281.238,527z"/>
</g>
<g>
	<g>
		<path fill="none" stroke="#023836" d="M542,296.239h-15h-15c-65.477,0-118.745-53.27-118.745-118.747
			c0-32.394-26.354-58.747-58.745-58.747c-65.478,0-118.747-53.269-118.747-118.747V-15v-15h15h15H512h15h15v15v14.998v266.241v15
			V296.239L542,296.239z"/>
	</g>
</g>
<g>
	<g>
		<path fill="none" stroke="#023836" d="M0,296.236h-15h-15v-15v-14.999V0v-15v-15h15H0h266.237h14.999h15v15V0
			c0,65.476-53.269,118.744-118.744,118.744c-32.394,0-58.748,26.354-58.748,58.748C118.745,242.968,65.477,296.236,0,296.236
			L0,296.236z"/>
	</g>
</g>
<g>
	<g>
		<path fill="none" stroke="#023836" d="M542,542h-15h-15H245.763h-15h-15v-15v-15c0-65.477,53.269-118.745,118.747-118.745
			c32.392,0,58.745-26.354,58.745-58.747c0-65.478,53.269-118.747,118.745-118.747h15h15v15v15V512v15V542L542,542z"/>
	</g>
</g>
<g>
	<g>
		<path fill="none" stroke="#023836" d="M296.239,542h-15h-15H-0.002H-15h-15v-15v-15V245.761v-15v-15h15h14.998
			c65.478,0,118.747,53.269,118.747,118.747c0,32.394,26.354,58.747,58.745,58.747c65.478,0,118.75,53.269,118.75,118.745v15V542
			L296.239,542z"/>
	</g>
</g>
<g>
	<g>
		<g>
			<path fill="none" stroke="#023836" d="M557.002,311.239h-15.001H527h-15.001c-73.745,0-133.744-59.999-133.744-133.747
				c0-24.122-19.622-43.747-43.744-43.747c-73.748,0-133.749-59.999-133.749-133.747V-15V-30v-15h15h15.001h15h266.235H527h15.001
				h15.001v15V-15v14.999v266.24v15v14.999V311.239L557.002,311.239z"/>
		</g>
	</g>
</g>
<g>
	<g>
		<g>
			<path fill="none" stroke="#023836" d="M0,311.235h-15h-15h-15v-15v-14.999v-15V0v-15v-15v-15h15h15H0h266.236h15h14.999h15v15v15
				V0c0,73.748-59.997,133.744-133.742,133.744c-24.123,0-43.749,19.626-43.749,43.749C133.745,251.239,73.748,311.235,0,311.235
				L0,311.235z"/>
		</g>
	</g>
</g>
<g>
	<g>
		<g>
			<path fill="none" stroke="#023836" d="M557.002,557.002h-15.001H527h-15.001H245.764h-15h-15.001h-15v-15.001V527v-15.001
				c0-73.745,60.001-133.744,133.749-133.744c24.122,0,43.744-19.625,43.744-43.747c0-73.748,59.999-133.746,133.744-133.746H527
				h15.001h15.001v15v14.999v15.001v266.237V527v15.001V557.002L557.002,557.002z"/>
		</g>
	</g>
</g>
<g>
	<g>
		<g>
			<path fill="none" stroke="#023836" d="M311.239,557.002h-15.001h-14.999h-15H-0.001H-15H-30h-15v-15.001V527v-15.001V245.762
				v-15.001v-14.999v-15h15H-15h14.999c73.748,0,133.747,59.998,133.747,133.746c0,24.122,19.623,43.747,43.745,43.747
				c73.748,0,133.749,59.999,133.749,133.744V527v15.001V557.002L311.239,557.002z"/>
		</g>
	</g>
</g>
<g>
	<g>
		<g>
			<g>
				<path fill="none" stroke="#023836" d="M572.001,326.238h-14.999h-15.001h-15.002h-15.001
					c-82.017,0-148.742-66.728-148.742-148.747c0-15.851-12.896-28.747-28.745-28.747c-82.021,0-148.749-66.726-148.749-148.745V-15
					v-15.001V-45v-15h14.999h15.001h15.001h15.001h266.233h15.001h15.002h15.001h14.999v15v14.999V-15V0v266.24v14.999v14.999
					v15.002V326.238L572.001,326.238z"/>
			</g>
		</g>
	</g>
</g>
<g>
	<g>
		<g>
			<g>
				<path fill="none" stroke="#023836" d="M0.001,326.234h-15h-15h-15h-15v-15v-15v-14.997v-15V0.001v-15v-15v-15v-15h15h15h15h15
					h266.236h15h14.997h15h15v15v15v15v15c0,82.016-66.725,148.742-148.74,148.742c-15.853,0-28.751,12.898-28.751,28.751
					C148.743,259.51,82.017,326.234,0.001,326.234L0.001,326.234z"/>
			</g>
		</g>
	</g>
</g>
<g>
	<g>
		<g>
			<g>
				<path fill="none" stroke="#023836" d="M572.001,572.001h-14.999h-15.001h-15.002h-15.001H245.765h-15.001h-15.001h-15.001
					h-14.999v-14.999v-15.001v-15.002v-15.001c0-82.017,66.728-148.742,148.749-148.742c15.849,0,28.745-12.896,28.745-28.747
					c0-82.02,66.726-148.747,148.742-148.747h15.001h15.002h15.001h14.999v14.999v15.001v14.999v15.001v266.235v15.001v15.002
					v15.001V572.001L572.001,572.001z"/>
			</g>
		</g>
	</g>
</g>
<g>
	<g>
		<g>
			<g>
				<path fill="none" stroke="#023836" d="M326.238,572.001h-14.999h-15.002h-14.999h-14.999H0H-15h-15.001H-45h-15v-14.999v-15.001
					v-15.002v-15.001V245.763v-15.001v-14.999v-15.001v-14.999h15h14.999H-15H0c82.019,0,148.745,66.728,148.745,148.747
					c0,15.851,12.896,28.747,28.745,28.747c82.021,0,148.749,66.726,148.749,148.742v15.001v15.002v15.001V572.001L326.238,572.001z
					"/>
			</g>
		</g>
	</g>
</g>
<g>
	<g>
		<g>
			<g>
				<g>
					<path fill="none" stroke="#023836" d="M587.001,341.239h-15h-15h-14.999H527h-15.002c-90.286,0-163.741-73.457-163.741-163.748
						c0-7.582-6.167-13.749-13.746-13.749c-90.292,0-163.75-73.455-163.75-163.743v-15v-15.002v-15v-14.998v-15h15h15h15.002h15
						h15.002h266.234H527h15.002h14.999h15h15v15v14.998v15V-15V0v266.238v15v14.999v15.002v15V341.239L587.001,341.239z"/>
				</g>
			</g>
		</g>
	</g>
</g>
<g>
	<g>
		<g>
			<g>
				<g>
					<path fill="none" stroke="#023836" d="M0.002,341.234H-15h-14.998h-15.001h-15h-15v-14.999v-15.002v-15v-14.995v-15.002V0.002
						V-15v-14.998v-15.001v-15v-15h15h15h15.001H-15H0.002h266.234h15.002h14.995h15h15.002h14.999v15v15v15.001V-15V0.002
						c0,90.288-73.452,163.741-163.74,163.741c-7.582,0-13.751,6.169-13.751,13.751C163.743,267.782,90.291,341.234,0.002,341.234
						L0.002,341.234z"/>
				</g>
			</g>
		</g>
	</g>
</g>
<g>
	<g>
		<g>
			<g>
				<g>
					<path fill="none" stroke="#023836" d="M587.001,587.001h-15h-15h-14.999H527h-15.002H245.764h-15.002h-15h-15.002h-15h-15v-15
						v-15v-14.999V527v-15.002c0-90.286,73.457-163.741,163.75-163.741c7.579,0,13.746-6.167,13.746-13.748
						c0-90.291,73.455-163.748,163.741-163.748H527h15.002h14.999h15h15v15v15v15.002v15v15v266.236V527v15.002v14.999v15V587.001
						L587.001,587.001z"/>
				</g>
			</g>
		</g>
	</g>
</g>
<g>
	<g>
		<g>
			<g>
				<g>
					<path fill="none" stroke="#023836" d="M341.239,587.001h-15h-15h-15.002h-14.999h-15H0h-15h-15.002h-15h-14.998h-15v-15v-15
						v-14.999V527v-15.002V245.762v-15v-15v-15.002v-15v-15h15h14.998h15H-15H0c90.289,0,163.743,73.457,163.743,163.748
						c0,7.581,6.167,13.748,13.746,13.748c90.293,0,163.75,73.455,163.75,163.741V527v15.002v14.999v15V587.001L341.239,587.001z"/>
				</g>
			</g>
		</g>
	</g>
</g>
<g>
	<g>
		<g>
			<g>
				<g>
					<g>
						<path fill="none" stroke="#023836" d="M602.002,356.24h-15.001h-15h-15h-15h-15h-15.002
							c-98.143,0-178.065-79.509-178.737-177.5C235.27,178.068,155.761,98.146,155.761,0v-15v-15.002v-15v-14.996v-15v-15h15h15h15
							h15h15h15.002h266.235h15.002h15h15h15h15h15.001v15v15v14.996v15V-15V0v266.237v15v15v15.003v15v15V356.24L602.002,356.24z"
							/>
					</g>
				</g>
			</g>
		</g>
	</g>
</g>
<g>
	<g>
		<g>
			<g>
				<g>
					<g>
						<path fill="none" stroke="#023836" d="M0.003,356.233H-15h-14.997h-15.001h-15h-15h-15v-15v-14.999v-15.002v-14.999v-14.995
							v-15.002V0.003V-15v-14.997v-15.001v-15v-15v-15h15h15h15h15.001H-15H0.003h266.233h15.002h14.995h14.999h15.002h14.999h15v15
							v15v15v15.001V-15V0.003c0,98.142-79.511,178.063-177.496,178.734C178.066,276.723,98.146,356.233,0.003,356.233
							L0.003,356.233z"/>
					</g>
				</g>
			</g>
		</g>
	</g>
</g>
<g>
	<g>
		<g>
			<g>
				<g>
					<g>
						<path fill="none" stroke="#023836" d="M602.002,602.002h-15.001h-15h-15h-15h-15h-15.002H245.764h-15.002h-15h-15h-15h-15h-15
							v-15.001v-15v-15v-15v-15v-15.002c0-98.143,79.509-178.065,177.5-178.737c0.672-97.992,80.595-177.5,178.737-177.5h15.002h15
							h15h15h15h15.001v15v15v15v15v15v15v266.237v15.002v15v15v15v15V602.002L602.002,602.002z"/>
					</g>
				</g>
			</g>
		</g>
	</g>
</g>
<g>
	<g>
		<g>
			<g>
				<g>
					<g>
						<path fill="none" stroke="#023836" d="M356.24,602.002h-15h-15h-15h-15.003h-15h-15H0h-15h-15.002h-15h-14.996h-15h-15
							v-15.001v-15v-15v-15v-15v-15.002V245.762v-15v-15v-15v-15v-15v-15h15h15h14.996h15H-15H0
							c98.145,0,178.067,79.509,178.739,177.5c97.994,0.672,177.5,80.595,177.5,178.737v15.002v15v15v15v15V602.002L356.24,602.002z
							"/>
					</g>
				</g>
			</g>
		</g>
	</g>
</g>
<g>
	<g>
		<g>
			<g>
				<g>
					<g>
						<g>
							<path fill="none" stroke="#023836" d="M617.002,371.24h-15.001h-15H572h-15h-14.998h-15.001h-15.002
								c-51.438,0-99.913-20.018-136.493-56.361c-33.155-32.944-52.961-75.74-56.629-121.754
								c-46.014-3.668-88.81-23.474-121.753-56.629c-36.345-36.58-56.362-85.055-56.362-136.495v-15v-15.003v-15v-14.996v-14.998
								v-15v-15h15h15h14.998h15h15h15h15.002h266.234h15.002h15.001H557h15h15.001h15h15.001v15v15v14.998v14.996v15v15.003v15
								v266.236v15v15.001v15.002v15.001v14.998v15.001V371.24L617.002,371.24z"/>
						</g>
					</g>
				</g>
			</g>
		</g>
	</g>
</g>
<g>
	<g>
		<g>
			<g>
				<g>
					<g>
						<g>
							<path fill="none" stroke="#023836" d="M0.002,371.233h-15.003h-14.997H-45h-14.999h-14.999h-15h-14.999v-14.999v-15.002
								v-14.999v-15.001v-14.999v-14.995v-15.002V0.002v-15.003v-14.997V-45v-14.999v-14.999v-15v-14.999h14.999h15h14.999H-45
								h15.001h14.997H0.002h266.234h15.002h14.995h14.999h15.001h14.999h15.002h14.999v14.999v15v14.999V-45v15.001v14.997V0.002
								c0,51.439-20.016,99.912-56.362,136.492c-32.943,33.153-75.738,52.96-121.75,56.626
								c-3.666,46.012-23.474,88.807-56.626,121.75C99.914,351.218,51.441,371.233,0.002,371.233L0.002,371.233z"/>
						</g>
					</g>
				</g>
			</g>
		</g>
	</g>
</g>
<g>
	<g>
		<g>
			<g>
				<g>
					<g>
						<g>
							<path fill="none" stroke="#023836" d="M617.002,617.002h-15.001h-15H572h-15h-14.998h-15.001h-15.002H245.765h-15.002h-15
								h-15h-15h-14.998h-15h-15v-15.001v-15V572v-15v-14.998v-15.001v-15.002c0-51.438,20.017-99.913,56.362-136.493
								c32.944-33.155,75.74-52.961,121.753-56.629c3.668-46.014,23.474-88.81,56.629-121.753
								c36.58-36.345,85.055-56.362,136.493-56.362h15.002h15.001H557h15h15.001h15h15.001v15v15v14.998v15v15v15v15v266.236v15.002
								v15.001V557v15v15.001v15V617.002L617.002,617.002z"/>
						</g>
					</g>
				</g>
			</g>
		</g>
	</g>
</g>
<g>
	<g>
		<g>
			<g>
				<g>
					<g>
						<g>
							<path fill="none" stroke="#023836" d="M371.24,617.002h-15h-15.001h-14.998H311.24h-15.002h-15.001h-15H0.001h-15h-15.003
								h-15h-14.996h-14.998h-15h-15v-15.001v-15V572v-15v-14.998v-15.001v-15.002V245.763v-15v-15v-15v-15v-14.998v-15v-15h15h15
								h14.998h14.996h15h15.003h15c51.44,0,99.916,20.017,136.495,56.362c33.155,32.944,52.961,75.74,56.629,121.753
								c46.014,3.668,88.81,23.474,121.754,56.629c36.344,36.58,56.361,85.055,56.361,136.493v15.002v15.001V557v15v15.001v15
								V617.002L371.24,617.002z"/>
						</g>
					</g>
				</g>
			</g>
		</g>
	</g>
</g>
</svg>
