<?xml version="1.0" encoding="utf-8"?>
<!-- Generator: Adobe Illustrator 13.0.0, SVG Export Plug-In . SVG Version: 6.00 Build 14948)  -->
<!DOCTYPE svg PUBLIC "-//W3C//DTD SVG 1.1//EN" "http://www.w3.org/Graphics/SVG/1.1/DTD/svg11.dtd">
<svg version="1.1" id="Capa_1" xmlns="http://www.w3.org/2000/svg" xmlns:xlink="http://www.w3.org/1999/xlink" x="0px" y="0px"
	 width="512px" height="512px" viewBox="0 0 512 512" enable-background="new 0 0 512 512" xml:space="preserve">
	<path class="favicon_path" fill="#EDD0A0" d="M268.322,380.481c-37.517,37.518-37.517,62.471-37.517,62.471s-25.015-49.958,12.504-87.476
		c37.519-37.516,37.519-62.468,37.519-62.468S305.84,342.963,268.322,380.481z"/>
	<path class="favicon_path" fill="#EDD0A0" d="M243.386,155.577c-37.516,37.518-37.516,62.472-37.516,62.472s-25.013-49.958,12.505-87.477
		s37.518-62.469,37.518-62.469S280.905,118.06,243.386,155.577z"/>
	<path class="favicon_path" fill="#EDD0A0" d="M463.364,243.199c0-17.684-17.678-35.36-17.678-35.36l-89.656-89.656L191.046,283.169
		c-2.143,2.066-18.618,17.436-35.111,17.436c-16.452,0-32.88-15.287-35.09-17.418l-4.928-4.925
		c-1.68-1.73-17.51-18.445-17.51-35.188c0.002-16.955,16.212-33.858,17.551-35.225l29.52-29.518
		c1.195-1.22,17.563-18.203,17.563-35.244c0-8.572-4.158-17.129-8.442-23.687L66.16,207.839c0,0-17.679,17.676-17.679,35.36
		c0,17.682,17.679,35.357,17.679,35.357l89.654,89.656L320.789,203.24c2.113-2.042,18.607-17.449,35.121-17.449
		c16.426,0,32.826,15.236,35.077,17.403l4.891,4.893c1.254,1.278,17.558,18.228,17.561,35.234c0,16.567-15.52,33.128-17.479,35.151
		l-12.148,12.147l-17.59,17.595c-2.117,2.197-17.424,18.632-17.424,35.093c0,8.578,4.163,17.135,8.446,23.692l88.443-88.444
		C445.687,278.557,463.364,260.881,463.364,243.199z"/>
		<style>
		.favicon_path {
			fill: #013330;
		}
		@media (prefers-color-scheme: dark) {
			.favicon_path {
				fill: #EDD0A0;
			}
		}
		</style>
</svg>
